<mxfile host="Electron" agent="Mozilla/5.0 (Windows NT 10.0; Win64; x64) AppleWebKit/537.36 (KHTML, like Gecko) draw.io/24.7.17 Chrome/128.0.6613.36 Electron/32.0.1 Safari/537.36" version="24.7.17">
  <diagram name="P치gina-1" id="Ec9THud4dqTrS_BY_o3T">
    <mxGraphModel dx="880" dy="532" grid="1" gridSize="10" guides="1" tooltips="1" connect="1" arrows="1" fold="1" page="1" pageScale="1" pageWidth="827" pageHeight="1169" math="0" shadow="0">
      <root>
        <mxCell id="0" />
        <mxCell id="1" parent="0" />
        <mxCell id="GNbNOkVpoz5caxUx-VEM-6" value="" style="whiteSpace=wrap;html=1;aspect=fixed;" vertex="1" parent="1">
          <mxGeometry x="230" y="70" width="450" height="450" as="geometry" />
        </mxCell>
        <mxCell id="GNbNOkVpoz5caxUx-VEM-4" value="Usuario" style="shape=umlActor;verticalLabelPosition=bottom;verticalAlign=top;html=1;" vertex="1" parent="1">
          <mxGeometry x="150" y="160" width="30" height="60" as="geometry" />
        </mxCell>
        <mxCell id="GNbNOkVpoz5caxUx-VEM-12" style="edgeStyle=orthogonalEdgeStyle;rounded=0;orthogonalLoop=1;jettySize=auto;html=1;curved=1;entryX=0;entryY=0.5;entryDx=0;entryDy=0;" edge="1" parent="1" source="GNbNOkVpoz5caxUx-VEM-5" target="GNbNOkVpoz5caxUx-VEM-20">
          <mxGeometry relative="1" as="geometry">
            <mxPoint x="340" y="464.9999999999999" as="targetPoint" />
            <Array as="points">
              <mxPoint x="260" y="420" />
              <mxPoint x="260" y="490" />
              <mxPoint x="340" y="490" />
              <mxPoint x="340" y="470" />
            </Array>
          </mxGeometry>
        </mxCell>
        <mxCell id="GNbNOkVpoz5caxUx-VEM-18" style="edgeStyle=orthogonalEdgeStyle;rounded=0;orthogonalLoop=1;jettySize=auto;html=1;entryX=0;entryY=0.5;entryDx=0;entryDy=0;curved=1;" edge="1" parent="1" source="GNbNOkVpoz5caxUx-VEM-5" target="GNbNOkVpoz5caxUx-VEM-17">
          <mxGeometry relative="1" as="geometry" />
        </mxCell>
        <mxCell id="GNbNOkVpoz5caxUx-VEM-24" style="edgeStyle=orthogonalEdgeStyle;rounded=0;orthogonalLoop=1;jettySize=auto;html=1;entryX=0;entryY=0.5;entryDx=0;entryDy=0;curved=1;" edge="1" parent="1" source="GNbNOkVpoz5caxUx-VEM-5" target="GNbNOkVpoz5caxUx-VEM-19">
          <mxGeometry relative="1" as="geometry" />
        </mxCell>
        <mxCell id="GNbNOkVpoz5caxUx-VEM-5" value="Encargado" style="shape=umlActor;verticalLabelPosition=bottom;verticalAlign=top;html=1;" vertex="1" parent="1">
          <mxGeometry x="150" y="390" width="30" height="60" as="geometry" />
        </mxCell>
        <mxCell id="GNbNOkVpoz5caxUx-VEM-7" value="Reservar&lt;br&gt;Alquiler" style="ellipse;whiteSpace=wrap;html=1;" vertex="1" parent="1">
          <mxGeometry x="280" y="80" width="100" height="70" as="geometry" />
        </mxCell>
        <mxCell id="GNbNOkVpoz5caxUx-VEM-15" style="edgeStyle=orthogonalEdgeStyle;rounded=0;orthogonalLoop=1;jettySize=auto;html=1;curved=1;" edge="1" parent="1" source="GNbNOkVpoz5caxUx-VEM-8" target="GNbNOkVpoz5caxUx-VEM-10">
          <mxGeometry relative="1" as="geometry" />
        </mxCell>
        <mxCell id="GNbNOkVpoz5caxUx-VEM-8" value="Servidor" style="shape=umlActor;verticalLabelPosition=bottom;verticalAlign=top;html=1;" vertex="1" parent="1">
          <mxGeometry x="740" y="190" width="30" height="60" as="geometry" />
        </mxCell>
        <mxCell id="GNbNOkVpoz5caxUx-VEM-14" style="edgeStyle=orthogonalEdgeStyle;rounded=0;orthogonalLoop=1;jettySize=auto;html=1;curved=1;" edge="1" parent="1" source="GNbNOkVpoz5caxUx-VEM-10" target="GNbNOkVpoz5caxUx-VEM-7">
          <mxGeometry relative="1" as="geometry">
            <Array as="points">
              <mxPoint x="435" y="150" />
              <mxPoint x="435" y="125" />
            </Array>
          </mxGeometry>
        </mxCell>
        <mxCell id="GNbNOkVpoz5caxUx-VEM-10" value="Pagar con&lt;div&gt;Tarjeta&lt;/div&gt;" style="ellipse;whiteSpace=wrap;html=1;" vertex="1" parent="1">
          <mxGeometry x="490" y="130" width="100" height="70" as="geometry" />
        </mxCell>
        <mxCell id="GNbNOkVpoz5caxUx-VEM-11" style="edgeStyle=orthogonalEdgeStyle;rounded=0;orthogonalLoop=1;jettySize=auto;html=1;curved=1;" edge="1" parent="1" target="GNbNOkVpoz5caxUx-VEM-7">
          <mxGeometry relative="1" as="geometry">
            <mxPoint x="210" y="190" as="targetPoint" />
            <mxPoint x="200" y="190" as="sourcePoint" />
            <Array as="points">
              <mxPoint x="260" y="190" />
              <mxPoint x="260" y="125" />
            </Array>
          </mxGeometry>
        </mxCell>
        <mxCell id="GNbNOkVpoz5caxUx-VEM-16" style="edgeStyle=orthogonalEdgeStyle;rounded=0;orthogonalLoop=1;jettySize=auto;html=1;curved=1;" edge="1" parent="1" source="GNbNOkVpoz5caxUx-VEM-4" target="GNbNOkVpoz5caxUx-VEM-10">
          <mxGeometry relative="1" as="geometry">
            <Array as="points">
              <mxPoint x="270" y="200" />
              <mxPoint x="270" y="165" />
            </Array>
          </mxGeometry>
        </mxCell>
        <mxCell id="GNbNOkVpoz5caxUx-VEM-17" value="Cargar&lt;div&gt;Mueble&lt;/div&gt;" style="ellipse;whiteSpace=wrap;html=1;" vertex="1" parent="1">
          <mxGeometry x="320" y="370" width="90" height="60" as="geometry" />
        </mxCell>
        <mxCell id="GNbNOkVpoz5caxUx-VEM-19" value="Iniciar&lt;div&gt;Sesi칩n&lt;span style=&quot;color: rgba(0, 0, 0, 0); font-family: monospace; font-size: 0px; text-align: start; text-wrap: nowrap; background-color: initial;&quot;&gt;%3CmxGraphModel%3E%3Croot%3E%3CmxCell%20id%3D%220%22%2F%3E%3CmxCell%20id%3D%221%22%20parent%3D%220%22%2F%3E%3CmxCell%20id%3D%222%22%20value%3D%22Reservar%26lt%3Bbr%26gt%3BAlquiler%22%20style%3D%22ellipse%3BwhiteSpace%3Dwrap%3Bhtml%3D1%3B%22%20vertex%3D%221%22%20parent%3D%221%22%3E%3CmxGeometry%20x%3D%22280%22%20y%3D%2290%22%20width%3D%22100%22%20height%3D%2270%22%20as%3D%22geometry%22%2F%3E%3C%2FmxCell%3E%3C%2Froot%3E%3C%2FmxGraphModel%3E&lt;/span&gt;&lt;/div&gt;" style="ellipse;whiteSpace=wrap;html=1;" vertex="1" parent="1">
          <mxGeometry x="285" y="300" width="90" height="60" as="geometry" />
        </mxCell>
        <mxCell id="GNbNOkVpoz5caxUx-VEM-20" value="Cerrar&lt;div&gt;Sesi칩n&lt;/div&gt;" style="ellipse;whiteSpace=wrap;html=1;" vertex="1" parent="1">
          <mxGeometry x="350" y="440" width="90" height="60" as="geometry" />
        </mxCell>
        <mxCell id="GNbNOkVpoz5caxUx-VEM-25" value="&amp;lt;Extends &amp;gt;" style="text;html=1;align=center;verticalAlign=middle;whiteSpace=wrap;rounded=0;" vertex="1" parent="1">
          <mxGeometry x="440" y="110" width="70" height="30" as="geometry" />
        </mxCell>
        <mxCell id="GNbNOkVpoz5caxUx-VEM-33" value="Nombre" style="swimlane;fontStyle=0;childLayout=stackLayout;horizontal=1;startSize=30;horizontalStack=0;resizeParent=1;resizeParentMax=0;resizeLast=0;collapsible=1;marginBottom=0;whiteSpace=wrap;html=1;" vertex="1" parent="1">
          <mxGeometry x="120" y="650" width="140" height="60" as="geometry" />
        </mxCell>
        <mxCell id="GNbNOkVpoz5caxUx-VEM-39" value="Descripci칩n" style="text;html=1;align=center;verticalAlign=middle;resizable=0;points=[];autosize=1;strokeColor=none;fillColor=none;" vertex="1" parent="GNbNOkVpoz5caxUx-VEM-33">
          <mxGeometry y="30" width="140" height="30" as="geometry" />
        </mxCell>
        <mxCell id="GNbNOkVpoz5caxUx-VEM-38" value="Cargar Mueble" style="swimlane;fontStyle=0;childLayout=stackLayout;horizontal=1;startSize=30;horizontalStack=0;resizeParent=1;resizeParentMax=0;resizeLast=0;collapsible=1;marginBottom=0;whiteSpace=wrap;html=1;" vertex="1" parent="1">
          <mxGeometry x="260" y="650" width="460" height="90" as="geometry">
            <mxRectangle x="260" y="650" width="120" height="30" as="alternateBounds" />
          </mxGeometry>
        </mxCell>
        <mxCell id="GNbNOkVpoz5caxUx-VEM-53" value="Este caso de uso especifica la manera q un encargado carga un mueble en el sistema" style="text;html=1;align=center;verticalAlign=middle;resizable=0;points=[];autosize=1;strokeColor=none;fillColor=none;" vertex="1" parent="GNbNOkVpoz5caxUx-VEM-38">
          <mxGeometry y="30" width="460" height="30" as="geometry" />
        </mxCell>
        <mxCell id="GNbNOkVpoz5caxUx-VEM-52" value="&lt;div style=&quot;text-align: start;&quot;&gt;&lt;span style=&quot;background-color: initial; font-size: 0px;&quot;&gt;&lt;font face=&quot;monospace&quot; color=&quot;rgba(0, 0, 0, 0)&quot;&gt;Esss&lt;/font&gt;&lt;/span&gt;&lt;/div&gt;" style="text;html=1;align=center;verticalAlign=middle;resizable=0;points=[];autosize=1;strokeColor=none;fillColor=none;" vertex="1" parent="GNbNOkVpoz5caxUx-VEM-38">
          <mxGeometry y="60" width="460" height="30" as="geometry" />
        </mxCell>
        <mxCell id="GNbNOkVpoz5caxUx-VEM-40" value="Actores" style="swimlane;fontStyle=0;childLayout=stackLayout;horizontal=1;startSize=30;horizontalStack=0;resizeParent=1;resizeParentMax=0;resizeLast=0;collapsible=1;marginBottom=0;whiteSpace=wrap;html=1;" vertex="1" parent="1">
          <mxGeometry x="120" y="710" width="140" height="60" as="geometry" />
        </mxCell>
        <mxCell id="GNbNOkVpoz5caxUx-VEM-41" value="Pre-condiciones" style="text;html=1;align=center;verticalAlign=middle;resizable=0;points=[];autosize=1;strokeColor=none;fillColor=none;" vertex="1" parent="GNbNOkVpoz5caxUx-VEM-40">
          <mxGeometry y="30" width="140" height="30" as="geometry" />
        </mxCell>
        <mxCell id="GNbNOkVpoz5caxUx-VEM-42" value="Encargado" style="swimlane;fontStyle=0;childLayout=stackLayout;horizontal=1;startSize=30;horizontalStack=0;resizeParent=1;resizeParentMax=0;resizeLast=0;collapsible=1;marginBottom=0;whiteSpace=wrap;html=1;" vertex="1" parent="1">
          <mxGeometry x="260" y="710" width="460" height="60" as="geometry" />
        </mxCell>
        <mxCell id="GNbNOkVpoz5caxUx-VEM-54" value="El encargado debe tener una sesion iniciada" style="text;html=1;align=center;verticalAlign=middle;resizable=0;points=[];autosize=1;strokeColor=none;fillColor=none;" vertex="1" parent="GNbNOkVpoz5caxUx-VEM-42">
          <mxGeometry y="30" width="460" height="30" as="geometry" />
        </mxCell>
        <mxCell id="GNbNOkVpoz5caxUx-VEM-43" value="Curso Normal" style="swimlane;fontStyle=0;childLayout=stackLayout;horizontal=1;startSize=30;horizontalStack=0;resizeParent=1;resizeParentMax=0;resizeLast=0;collapsible=1;marginBottom=0;whiteSpace=wrap;html=1;" vertex="1" parent="1">
          <mxGeometry x="120" y="770" width="140" height="190" as="geometry" />
        </mxCell>
        <mxCell id="GNbNOkVpoz5caxUx-VEM-45" value="Acciones del Actor" style="swimlane;fontStyle=0;childLayout=stackLayout;horizontal=1;startSize=30;horizontalStack=0;resizeParent=1;resizeParentMax=0;resizeLast=0;collapsible=1;marginBottom=0;whiteSpace=wrap;html=1;" vertex="1" parent="1">
          <mxGeometry x="260" y="770" width="230" height="80" as="geometry" />
        </mxCell>
        <mxCell id="GNbNOkVpoz5caxUx-VEM-55" value="&lt;pre style=&quot;line-height: 100%; font-size: 9px;&quot;&gt;1. El encargado selecciona la opcion&amp;nbsp;&lt;br&gt;de cargar mueble.&lt;/pre&gt;" style="text;html=1;align=left;verticalAlign=middle;resizable=0;points=[];autosize=1;strokeColor=none;fillColor=none;" vertex="1" parent="GNbNOkVpoz5caxUx-VEM-45">
          <mxGeometry y="30" width="230" height="50" as="geometry" />
        </mxCell>
        <mxCell id="GNbNOkVpoz5caxUx-VEM-46" value="Acciones del Actor" style="swimlane;fontStyle=0;childLayout=stackLayout;horizontal=1;startSize=30;horizontalStack=0;resizeParent=1;resizeParentMax=0;resizeLast=0;collapsible=1;marginBottom=0;whiteSpace=wrap;html=1;" vertex="1" parent="1">
          <mxGeometry x="490" y="770" width="230" height="100" as="geometry" />
        </mxCell>
        <mxCell id="GNbNOkVpoz5caxUx-VEM-56" value="&lt;h1 style=&quot;font-size: 9px; line-height: 60%;&quot;&gt;&lt;font style=&quot;font-size: 9px;&quot;&gt;2. El sistema solicita al encargado que&amp;nbsp;&amp;nbsp;&lt;/font&gt;&lt;font style=&quot;font-size: 9px;&quot;&gt;ingrese los&amp;nbsp;&lt;/font&gt;&lt;/h1&gt;&lt;h1 style=&quot;font-size: 9px; line-height: 60%;&quot;&gt;&lt;font style=&quot;font-size: 9px;&quot;&gt;datos: c칩digo de inventario,&amp;nbsp;&lt;/font&gt;&lt;font style=&quot;font-size: 9px;&quot;&gt;tipo de mueble, fecha&amp;nbsp;&lt;/font&gt;&lt;/h1&gt;&lt;h1 style=&quot;font-size: 9px; line-height: 60%;&quot;&gt;&lt;font style=&quot;font-size: 9px;&quot;&gt;de creaci칩n,&amp;nbsp;&lt;/font&gt;&lt;font style=&quot;font-size: 9px;&quot;&gt;fecha de 칰ltimo mantenimiento,&amp;nbsp;&lt;/font&gt;&lt;font style=&quot;font-size: 9px;&quot;&gt;estado&amp;nbsp;&lt;/font&gt;&lt;/h1&gt;&lt;h1 style=&quot;font-size: 9px; line-height: 60%;&quot;&gt;&lt;font style=&quot;font-size: 9px;&quot;&gt;(libre, de baja, alquilado) y&amp;nbsp;&lt;/font&gt;&lt;font style=&quot;font-size: 9px;&quot;&gt;el precio de alquiler.&lt;/font&gt;&lt;/h1&gt;" style="text;html=1;align=left;verticalAlign=middle;resizable=0;points=[];autosize=1;strokeColor=none;fillColor=none;" vertex="1" parent="GNbNOkVpoz5caxUx-VEM-46">
          <mxGeometry y="30" width="230" height="70" as="geometry" />
        </mxCell>
        <mxCell id="GNbNOkVpoz5caxUx-VEM-47" value="Curso Alterno" style="swimlane;fontStyle=0;childLayout=stackLayout;horizontal=1;startSize=30;horizontalStack=0;resizeParent=1;resizeParentMax=0;resizeLast=0;collapsible=1;marginBottom=0;whiteSpace=wrap;html=1;" vertex="1" parent="1">
          <mxGeometry x="120" y="960" width="140" height="60" as="geometry" />
        </mxCell>
        <mxCell id="GNbNOkVpoz5caxUx-VEM-48" value="Post-condici칩n" style="text;html=1;align=center;verticalAlign=middle;resizable=0;points=[];autosize=1;strokeColor=none;fillColor=none;" vertex="1" parent="GNbNOkVpoz5caxUx-VEM-47">
          <mxGeometry y="30" width="140" height="30" as="geometry" />
        </mxCell>
        <mxCell id="GNbNOkVpoz5caxUx-VEM-49" value="&lt;pre style=&quot;&quot;&gt;&lt;span style=&quot;font-size: 8px; font-weight: normal;&quot;&gt;&lt;font face=&quot;Helvetica&quot; style=&quot;font-size: 8px;&quot;&gt;&amp;nbsp; &amp;nbsp; &amp;nbsp; &lt;u&gt;Paso 4 Alternativo:&lt;/u&gt; Ya existe un mueble cargado con ese codigo. Se cancela la operaci칩n. Fin de caso de uso.&lt;br&gt;&lt;/font&gt;&lt;/span&gt;&lt;span style=&quot;font-weight: normal;&quot;&gt;&lt;font face=&quot;BFooivng0OX3C7qqoxpq&quot; style=&quot;font-size: 8px;&quot;&gt;&amp;nbsp; &amp;nbsp; &amp;nbsp; &amp;nbsp;&lt;/font&gt;&lt;font face=&quot;Helvetica&quot; style=&quot;font-size: 8px;&quot;&gt;&lt;u&gt;Paso 4 Alternativo:&lt;/u&gt; El precio cargado no esta en dolares. Se informa. Retoma paso 2.&lt;/font&gt;&lt;/span&gt;&lt;/pre&gt;" style="swimlane;fontStyle=0;childLayout=stackLayout;horizontal=1;startSize=30;horizontalStack=0;resizeParent=1;resizeParentMax=0;resizeLast=0;collapsible=1;marginBottom=0;whiteSpace=wrap;html=1;align=left;" vertex="1" parent="1">
          <mxGeometry x="260" y="960" width="460" height="60" as="geometry" />
        </mxCell>
        <mxCell id="GNbNOkVpoz5caxUx-VEM-64" value="Se registro un mueble para su futuro alquiler." style="text;html=1;align=left;verticalAlign=middle;resizable=0;points=[];autosize=1;strokeColor=none;fillColor=none;" vertex="1" parent="GNbNOkVpoz5caxUx-VEM-49">
          <mxGeometry y="30" width="460" height="30" as="geometry" />
        </mxCell>
        <mxCell id="GNbNOkVpoz5caxUx-VEM-60" value="&lt;font style=&quot;font-size: 8px;&quot;&gt;&amp;nbsp; &amp;nbsp; &amp;nbsp; &amp;nbsp;&amp;nbsp;&lt;/font&gt;&lt;div&gt;&lt;font style=&quot;font-size: 8px;&quot;&gt;3. El encargado ingresa los datos requeridos por el sistema.&lt;/font&gt;&lt;/div&gt;" style="swimlane;fontStyle=0;childLayout=stackLayout;horizontal=1;startSize=30;horizontalStack=0;resizeParent=1;resizeParentMax=0;resizeLast=0;collapsible=1;marginBottom=0;whiteSpace=wrap;html=1;" vertex="1" parent="1">
          <mxGeometry x="260" y="850" width="230" height="30" as="geometry" />
        </mxCell>
        <mxCell id="GNbNOkVpoz5caxUx-VEM-62" value="&lt;font style=&quot;font-size: 8px;&quot;&gt;&amp;nbsp; &amp;nbsp; &amp;nbsp; &amp;nbsp; &amp;nbsp;4. El sistema verifica que el precio este cargado en dolares y que no exista otro mueble con el mismo codigo.&lt;/font&gt;" style="swimlane;fontStyle=0;childLayout=stackLayout;horizontal=1;startSize=30;horizontalStack=0;resizeParent=1;resizeParentMax=0;resizeLast=0;collapsible=1;marginBottom=0;whiteSpace=wrap;html=1;align=left;" vertex="1" parent="1">
          <mxGeometry x="490" y="870" width="230" height="90" as="geometry" />
        </mxCell>
        <mxCell id="GNbNOkVpoz5caxUx-VEM-63" value="&lt;pre style=&quot;line-height: 100%; font-size: 9px;&quot;&gt;5. El sistema carga el mueble en la base &lt;/pre&gt;&lt;pre style=&quot;line-height: 100%; font-size: 9px;&quot;&gt;de datos.&lt;/pre&gt;" style="text;html=1;align=left;verticalAlign=middle;resizable=0;points=[];autosize=1;strokeColor=none;fillColor=none;" vertex="1" parent="GNbNOkVpoz5caxUx-VEM-62">
          <mxGeometry y="30" width="230" height="60" as="geometry" />
        </mxCell>
        <mxCell id="GNbNOkVpoz5caxUx-VEM-65" value="Nombre" style="swimlane;fontStyle=0;childLayout=stackLayout;horizontal=1;startSize=30;horizontalStack=0;resizeParent=1;resizeParentMax=0;resizeLast=0;collapsible=1;marginBottom=0;whiteSpace=wrap;html=1;" vertex="1" parent="1">
          <mxGeometry x="150" y="1220" width="140" height="60" as="geometry" />
        </mxCell>
        <mxCell id="GNbNOkVpoz5caxUx-VEM-66" value="Descripci칩n" style="text;html=1;align=center;verticalAlign=middle;resizable=0;points=[];autosize=1;strokeColor=none;fillColor=none;" vertex="1" parent="GNbNOkVpoz5caxUx-VEM-65">
          <mxGeometry y="30" width="140" height="30" as="geometry" />
        </mxCell>
        <mxCell id="GNbNOkVpoz5caxUx-VEM-67" value="Reservar Alquiler" style="swimlane;fontStyle=0;childLayout=stackLayout;horizontal=1;startSize=30;horizontalStack=0;resizeParent=1;resizeParentMax=0;resizeLast=0;collapsible=1;marginBottom=0;whiteSpace=wrap;html=1;" vertex="1" parent="1">
          <mxGeometry x="290" y="1220" width="460" height="60" as="geometry" />
        </mxCell>
        <mxCell id="GNbNOkVpoz5caxUx-VEM-77" value="&lt;font style=&quot;font-size: 11px;&quot;&gt;Este caso de uso especifica la manera en la que un usuario realiza una reserva de alquiler.&lt;/font&gt;" style="text;html=1;align=center;verticalAlign=middle;resizable=0;points=[];autosize=1;strokeColor=none;fillColor=none;" vertex="1" parent="GNbNOkVpoz5caxUx-VEM-67">
          <mxGeometry y="30" width="460" height="30" as="geometry" />
        </mxCell>
        <mxCell id="GNbNOkVpoz5caxUx-VEM-68" value="Actores" style="swimlane;fontStyle=0;childLayout=stackLayout;horizontal=1;startSize=30;horizontalStack=0;resizeParent=1;resizeParentMax=0;resizeLast=0;collapsible=1;marginBottom=0;whiteSpace=wrap;html=1;" vertex="1" parent="1">
          <mxGeometry x="150" y="1280" width="140" height="60" as="geometry" />
        </mxCell>
        <mxCell id="GNbNOkVpoz5caxUx-VEM-69" value="Pre-condiciones" style="text;html=1;align=center;verticalAlign=middle;resizable=0;points=[];autosize=1;strokeColor=none;fillColor=none;" vertex="1" parent="GNbNOkVpoz5caxUx-VEM-68">
          <mxGeometry y="30" width="140" height="30" as="geometry" />
        </mxCell>
        <mxCell id="GNbNOkVpoz5caxUx-VEM-70" value="Usuario" style="swimlane;fontStyle=0;childLayout=stackLayout;horizontal=1;startSize=30;horizontalStack=0;resizeParent=1;resizeParentMax=0;resizeLast=0;collapsible=1;marginBottom=0;whiteSpace=wrap;html=1;" vertex="1" parent="1">
          <mxGeometry x="290" y="1280" width="460" height="60" as="geometry" />
        </mxCell>
        <mxCell id="GNbNOkVpoz5caxUx-VEM-71" value="Curso Normal" style="swimlane;fontStyle=0;childLayout=stackLayout;horizontal=1;startSize=30;horizontalStack=0;resizeParent=1;resizeParentMax=0;resizeLast=0;collapsible=1;marginBottom=0;whiteSpace=wrap;html=1;" vertex="1" parent="1">
          <mxGeometry x="150" y="1340" width="140" height="240" as="geometry" />
        </mxCell>
        <mxCell id="GNbNOkVpoz5caxUx-VEM-72" value="Acciones del Actor" style="swimlane;fontStyle=0;childLayout=stackLayout;horizontal=1;startSize=30;horizontalStack=0;resizeParent=1;resizeParentMax=0;resizeLast=0;collapsible=1;marginBottom=0;whiteSpace=wrap;html=1;" vertex="1" parent="1">
          <mxGeometry x="290" y="1340" width="230" height="110" as="geometry" />
        </mxCell>
        <mxCell id="GNbNOkVpoz5caxUx-VEM-79" value="1. Usuario selecciona Reservar Alquiler en&amp;nbsp;&lt;div&gt;&amp;nbsp; &amp;nbsp; el sistema.&lt;/div&gt;" style="text;html=1;align=left;verticalAlign=middle;resizable=0;points=[];autosize=1;strokeColor=none;fillColor=none;" vertex="1" parent="GNbNOkVpoz5caxUx-VEM-72">
          <mxGeometry y="30" width="230" height="40" as="geometry" />
        </mxCell>
        <mxCell id="GNbNOkVpoz5caxUx-VEM-82" value="3. El usuario ingresa los datos solicitados&lt;div&gt;por el sistema.&lt;/div&gt;" style="text;html=1;align=left;verticalAlign=middle;resizable=0;points=[];autosize=1;strokeColor=none;fillColor=none;" vertex="1" parent="GNbNOkVpoz5caxUx-VEM-72">
          <mxGeometry y="70" width="230" height="40" as="geometry" />
        </mxCell>
        <mxCell id="GNbNOkVpoz5caxUx-VEM-73" value="Acciones del Actor" style="swimlane;fontStyle=0;childLayout=stackLayout;horizontal=1;startSize=30;horizontalStack=0;resizeParent=1;resizeParentMax=0;resizeLast=0;collapsible=1;marginBottom=0;whiteSpace=wrap;html=1;" vertex="1" parent="1">
          <mxGeometry x="520" y="1340" width="230" height="240" as="geometry" />
        </mxCell>
        <mxCell id="GNbNOkVpoz5caxUx-VEM-80" value="2. El sistema solicita los siguientes datos:&amp;nbsp;&lt;div&gt;Fecha, lugar del evento, cantidad de dias,&lt;/div&gt;&lt;div&gt;muebles, cantidad de muebles.&lt;/div&gt;" style="text;html=1;align=left;verticalAlign=middle;resizable=0;points=[];autosize=1;strokeColor=none;fillColor=none;" vertex="1" parent="GNbNOkVpoz5caxUx-VEM-73">
          <mxGeometry y="30" width="230" height="60" as="geometry" />
        </mxCell>
        <mxCell id="GNbNOkVpoz5caxUx-VEM-83" value="4. El sistema verifica que haya stock&lt;div&gt;suficiente y que la cantidad de&amp;nbsp;&lt;div&gt;mubles ingresados por el usuario no sea&lt;/div&gt;&lt;/div&gt;&lt;div&gt;menor a 3.&lt;/div&gt;" style="text;html=1;align=left;verticalAlign=middle;resizable=0;points=[];autosize=1;strokeColor=none;fillColor=none;" vertex="1" parent="GNbNOkVpoz5caxUx-VEM-73">
          <mxGeometry y="90" width="230" height="70" as="geometry" />
        </mxCell>
        <mxCell id="GNbNOkVpoz5caxUx-VEM-84" value="5. El sistema ejecuta el caso de uso&amp;nbsp;&lt;div&gt;Pagar con Tarjeta&lt;/div&gt;" style="text;html=1;align=left;verticalAlign=middle;resizable=0;points=[];autosize=1;strokeColor=none;fillColor=none;" vertex="1" parent="GNbNOkVpoz5caxUx-VEM-73">
          <mxGeometry y="160" width="230" height="40" as="geometry" />
        </mxCell>
        <mxCell id="GNbNOkVpoz5caxUx-VEM-85" value="6. El sistema registra la reserva de alquiler&amp;nbsp;&lt;br&gt;y emite un numero de reserva unico" style="text;html=1;align=left;verticalAlign=middle;resizable=0;points=[];autosize=1;strokeColor=none;fillColor=none;" vertex="1" parent="GNbNOkVpoz5caxUx-VEM-73">
          <mxGeometry y="200" width="230" height="40" as="geometry" />
        </mxCell>
        <mxCell id="GNbNOkVpoz5caxUx-VEM-74" value="Curso Alterno" style="swimlane;fontStyle=0;childLayout=stackLayout;horizontal=1;startSize=80;horizontalStack=0;resizeParent=1;resizeParentMax=0;resizeLast=0;collapsible=1;marginBottom=0;whiteSpace=wrap;html=1;" vertex="1" parent="1">
          <mxGeometry x="150" y="1580" width="140" height="110" as="geometry" />
        </mxCell>
        <mxCell id="GNbNOkVpoz5caxUx-VEM-75" value="Post-condici칩n" style="text;html=1;align=center;verticalAlign=middle;resizable=0;points=[];autosize=1;strokeColor=none;fillColor=none;" vertex="1" parent="GNbNOkVpoz5caxUx-VEM-74">
          <mxGeometry y="80" width="140" height="30" as="geometry" />
        </mxCell>
        <mxCell id="GNbNOkVpoz5caxUx-VEM-76" value="&amp;nbsp; &amp;nbsp; Paso Alternativo 4: No hay stock suficiente del mobiliario solicitado. Se informa.&amp;nbsp;&lt;div&gt;&amp;nbsp; &amp;nbsp; Retoma desde el paso 2.&lt;/div&gt;&lt;div&gt;&amp;nbsp; &amp;nbsp; Paso Alternativo 4: La cantidad de muebles seleccionados es menor a 3. Se&amp;nbsp; &amp;nbsp; &amp;nbsp; &amp;nbsp; &amp;nbsp; &amp;nbsp; &amp;nbsp; &amp;nbsp; informa.&amp;nbsp; Retoma paso 2.&lt;/div&gt;&lt;div&gt;&amp;nbsp; &amp;nbsp; Paso Alternativo 5: El pago no se realiza. Se informa. Fin de CU&lt;/div&gt;" style="swimlane;fontStyle=0;childLayout=stackLayout;horizontal=1;startSize=80;horizontalStack=0;resizeParent=1;resizeParentMax=0;resizeLast=0;collapsible=1;marginBottom=0;whiteSpace=wrap;html=1;align=left;" vertex="1" parent="1">
          <mxGeometry x="290" y="1580" width="460" height="110" as="geometry" />
        </mxCell>
        <mxCell id="GNbNOkVpoz5caxUx-VEM-87" value="Se registro una reserva y se emitio un numero de reserva unico" style="text;html=1;align=center;verticalAlign=middle;resizable=0;points=[];autosize=1;strokeColor=none;fillColor=none;" vertex="1" parent="GNbNOkVpoz5caxUx-VEM-76">
          <mxGeometry y="80" width="460" height="30" as="geometry" />
        </mxCell>
        <mxCell id="GNbNOkVpoz5caxUx-VEM-78" value="---" style="text;html=1;align=center;verticalAlign=middle;resizable=0;points=[];autosize=1;strokeColor=none;fillColor=none;" vertex="1" parent="1">
          <mxGeometry x="400" y="1308" width="40" height="30" as="geometry" />
        </mxCell>
      </root>
    </mxGraphModel>
  </diagram>
</mxfile>
